<!--?xml version="1.0" encoding="UTF-8" standalone="no"?-->
<!-- Created with Inkscape (http://www.inkscape.org/) -->

<svg width="1799.3824" height="677.55035" viewBox="0 0 1799.3824 677.55035" version="1.1" id="svg5" xml:space="preserve" xmlns="http://www.w3.org/2000/svg" xmlns:svg="http://www.w3.org/2000/svg" style="">

<defs id="defs2">
</defs>

<g id="layer1" transform="translate(-58.161518,-33.069801)">

<g id="g651">

<path style="fill: none; stroke: rgb(255, 255, 254); stroke-width: 3.70448; stroke-opacity: 1;" d="m 664.86788,418.34118 c -0.41055,-0.93976 -0.19427,-1.60614 -0.83807,-3.63791 -1.13482,-3.58035 -5.48928,-7.81906 -8.59259,-10.10549 -4.8939,-3.60517 -11.30989,-6.99571 -16.97521,-8.89233 -2.01062,-0.67356 -6.91268,-2.45014 -8.80196,-2.72844 -1.92197,-0.28312 -2.70095,0.07 -3.77227,0.50513 l 1.36242,3.63791 1.67614,2.42522 5.7634,5.25496 19.49005,10.00426 6.28711,3.43547 3.77227,1.11192 4.40098,4.14304 4.40097,1.61705 4.40099,1.71764 c 0,-1.14412 0.0629,-2.15601 0,-3.63791 -0.10688,-2.44158 -1.50325,-7.04418 -1.88614,-9.70104 -1.19644,-8.30663 -3.25295,-17.47835 -5.55341,-25.46539 -1.56423,-5.43141 -6.30031,-9.81755 -10.16437,-13.9454 -4.34691,-4.64316 -9.22822,-10.04609 -11.94551,-15.76426 -3.63207,-7.64262 -3.97974,-14.74628 -3.14356,-23.04008 0.3634,-3.60399 -0.36339,-7.30984 0,-10.91374 l 1.88613,-18.79592 c 0.71171,-7.06055 0.83242,-14.32546 2.61984,-21.22113 0.4728,-1.82441 0.70227,-5.26224 2.51485,-6.36635 1.69123,-1.03016 4.2306,-0.0427 5.55341,1.01071 3.31456,2.64049 4.57765,6.88957 5.02969,10.81251 0.61676,5.35319 2.24261,10.84699 4.29598,15.76426 0.85882,2.0566 2.4394,5.19376 3.03919,7.27583 0.32944,1.14412 0.45015,1.39268 0.10437,2.4253 -0.38415,1.14713 -1.19015,1.30783 -1.67615,1.92019 -0.83933,1.05681 -1.038,2.56291 -0.10499,4.14294 3.16996,5.36774 10.81383,9.48586 16.34649,12.22766 2.03074,1.00525 5.52009,2.6836 7.54453,3.33479 1.23228,0.39589 2.23193,0.55351 3.14356,0.80816 0.84247,-1.93173 0.89906,-2.67441 -0.62871,-4.24417 -1.15054,-1.18114 -3.49564,-2.37319 -5.02969,-3.13288 -4.03632,-2.00149 -9.37408,-3.47966 -12.57423,-6.56825 -0.9789,-0.94404 -2.66007,-3.22319 -3.24854,-4.24426 -0.55075,-0.95678 -1.66232,-2.33191 -0.83808,-3.5366 0.50926,-0.74396 0.89528,-0.68457 2.20049,-0.70758 1.23102,-0.0218 3.1247,0.12005 4.40098,0 6.30598,-0.59116 13.09606,-1.20596 19.49005,-0.60635 2.92979,0.27467 7.22389,0.60635 10.05937,0.60635 1.52149,0 2.13133,0.34561 3.14357,-0.30322 1.26999,-0.81607 0.79217,-3.01583 0.42123,-4.54739 -0.30179,-1.21988 -0.87391,-2.42285 -1.25742,-3.63791 -2.03703,-6.42328 -6.16137,-16.17598 -3.98604,-23.04009 0.54698,-1.72801 2.12505,-4.32911 3.5648,-5.35564 1.11282,-0.79543 1.86099,-0.33951 3.03667,-1.41515 1.59694,-1.45271 1.1254,-2.49797 3.25044,-2.93034 0.81104,-0.16552 1.29514,0.0846 1.88614,-0.30313 2.08103,-1.36604 2.18791,-2.10335 3.77226,-2.72843 2.2948,-0.90466 6.58261,-2.67205 9.43067,-3.43601 8.18582,-2.19303 17.61649,-4.66381 26.40587,-3.83982 5.00455,0.46929 11.01502,1.1162 15.71779,2.62721 5.89102,1.8929 12.02095,5.49261 17.60391,8.1853 5.08628,2.45314 10.98987,4.38369 16.34649,5.96254 1.84213,0.5426 3.75341,0.65055 5.65841,1.21261 8.47502,2.49807 17.01292,2.41194 25.77715,3.23347 10.65666,0.99924 22.3444,0.0809 32.69299,-2.82966 1.30143,-0.36497 2.45825,-0.861 3.77227,-1.21261 4.17463,-1.11866 8.68249,-2.56236 12.57422,-4.64807 12.69997,-6.80353 22.7782,-17.39714 35.83654,-23.3433 9.04087,-4.11685 19.44604,-5.94854 28.92072,-8.99411 4.81592,-1.54729 10.28571,-3.3226 13.62417,-7.47773 1.63461,-2.04023 2.584,-4.24663 3.24415,-6.66948 0.93052,-3.38689 1.60953,-8.7037 0.52811,-12.12643 -1.2008,-3.7828 -4.77192,-6.94478 -7.96576,-9.29669 -6.99756,-5.15611 -14.8816,-8.69216 -22.63361,-12.42948 -17.49704,-8.43877 -35.77995,-15.15072 -51.55432,-26.98122 -8.00978,-6.00619 -15.31541,-13.19589 -20.54,-21.62557 -3.32588,-5.36956 -5.4132,-12.05787 -6.91582,-18.18957 -2.10619,-8.60976 -0.55327,-18.27988 1.25742,-26.678 0.82361,-3.790163 2.23193,-7.361953 3.56479,-10.913743 2.8355,-7.568132 6.35628,-14.691712 11.52428,-21.221222 13.55501,-17.10892 35.68565,-25.52896 56.37654,-30.51809 30.98288,-7.47009 64.61899,-5.61084 95.56411,0.60635 13.0395,2.61948 25.576,6.23411 37.7228,11.11583 13.3224,5.35264 26.6636,11.44614 38.3514,20.21042 17.0443,12.78554 29.9391,28.816005 33.2147,49.516285 0.6099,3.84891 0.1069,8.2114 0.1069,12.12643 0,2.03596 -0.8613,6.04376 -1.2573,7.88209 -0.3019,1.39759 -1.4084,2.38647 -0.6288,4.24426 0.6979,1.66371 1.861,1.24662 3.1435,2.02086 0.7922,0.47657 2.32,1.72801 3.1437,2.32463 2.5839,1.86925 5.1428,3.87256 7.5445,5.9619 8.9403,7.78213 16.711,18.42849 21.1686,29.10331 4.4639,10.68637 7.0668,25.62064 3.1436,36.98548 -2.452,7.08911 -7.4062,13.24018 -13.6242,17.98766 -8.2864,6.32451 -18.044,11.09081 -27.6632,14.95546 -3.3825,1.35876 -6.7147,2.90005 -10.0594,4.24426 -6.5701,2.63931 -13.1464,5.7339 -19.4901,8.79157 -7.4314,3.58334 -15.3468,7.52929 -22.6336,11.82321 -21.6088,12.73634 -38.4458,31.26669 -50.4039,52.54784 -5.6206,10.00735 -10.185,20.70218 -13.3034,31.52861 -0.415,1.44362 -1.0877,2.763 -1.4712,4.24426 -2.3136,8.93408 -4.8033,18.08589 -5.8659,27.28435 -1.5278,13.24565 -3.2441,25.94924 -1.8861,39.4107 0.4526,4.47036 1.0939,9.04995 2.5149,13.33904 1.9741,5.95099 4.294,12.15846 8.8019,16.97687 2.3954,2.55927 5.0862,5.29744 8.1733,7.07392 7.3998,4.26 15.5542,4.62197 23.8909,3.83982 18.6099,-1.74492 33.5104,-12.76362 47.7822,-23.84834 12.4421,-9.66648 21.5584,-24.46496 28.185,-37.99618 3.2882,-6.70886 5.3126,-14.00715 9.1164,-20.61478 12.373,-21.47342 28.0845,-39.7151 48.832,-54.16435 8.7831,-6.11769 19.9616,-11.51399 30.8069,-12.53079 10.3297,-0.96887 20.2067,2.80065 25.0415,12.12644 4.2752,8.23742 3.6025,18.89286 4.5079,27.89061 1.3453,13.36933 3.0555,26.67081 4.401,40.01704 0.5909,5.86923 1.2951,11.71472 1.8861,17.58331 0.1885,1.84015 0.8739,4.31938 1.1505,6.06313 0.2829,1.78321 -0.5218,2.57264 0.8425,3.33478 1.0122,0.56688 2.9486,-0.46201 3.6654,-0.80825 0.8676,-0.41836 2.8292,-1.57758 3.7723,-2.12209 2.8857,-1.66189 5.8155,-3.10859 8.8019,-4.54739 10.9333,-5.27252 22.3695,-10.07456 33.9504,-13.64217 2.9926,-0.92221 6.2808,-1.73411 9.4307,-2.32463 0.9367,-0.1758 2.9549,-0.54323 3.7722,-0.70694 1.6221,-0.32623 2.1251,-0.40444 3.7723,-0.40444 l 0.5218,3.63791 0.107,3.03156 1.3642,7.88218 4.0866,21.82748 10.4743,56.38765 5.451,27.28435 4.1935,23.64644 1.8861,10.30739 0.8363,4.24426 c 0.8863,-0.24801 1.6785,-0.54751 3.1435,-0.60635 1.6346,-0.0664 5.7024,-0.35952 7.5445,-0.60626 4.3444,-0.58206 8.6133,-2.14336 12.5742,-3.83981 8.343,-3.57607 15.8687,-10.30567 21.1688,-17.38141 2.2193,-2.96726 4.1117,-6.58216 5.8658,-9.70104 3.8666,-6.88238 5.5892,-14.82941 7.1233,-22.43383 2.3011,-11.40304 4.2878,-23.01707 5.4509,-34.56017 0.2264,-2.27188 -0.038,-4.3946 0.4213,-6.66948 0.8676,-4.31275 0.2703,-9.5708 0.2075,-13.94539 -0.012,-1.01189 -0.5911,-2.81329 -0.6288,-3.63792 -0.057,-1.28172 0,-1.09374 1.2575,-2.42521 l 1.2574,-1.2127 c -3.0367,-1.5412 -7.2554,-2.8885 -10.0594,-4.7493 -1.1506,-0.7615 -1.6032,-1.29146 -1.6787,-2.52653 -0.044,-0.7676 0.6476,-1.39386 1.05,-1.71764 1.6535,-1.32911 6.614,-0.94222 8.802,-0.70757 6.2053,0.6651 12.6685,4.94265 18.2326,7.47773 1.9301,0.87792 3.6905,1.85897 5.6584,2.72843 1.729,0.76333 2.257,0.94586 3.1436,1.01071 0.3206,0.0236 1.0499,0.0664 1.4648,-0.90948 0.723,-1.68736 -0.5595,-2.47624 -2.0936,-3.73914 -2.2194,-1.82623 -6.2179,-4.70446 -8.8019,-6.36635 -7.5383,-4.84633 -16.1139,-7.24672 -24.5197,-9.49859 -2.6784,-0.71667 -8.3557,-3.32087 -5.0298,-6.36635 3.0178,-2.76481 8.8648,-0.70821 12.5743,-1.31392 1.3642,-0.22309 1.446,-0.80825 2.5148,-1.81896 0.5407,-0.51231 1.2134,-0.97614 1.8861,-1.11138 1.1631,-0.23401 4.8977,0.92521 6.2872,1.11138 7.0289,0.94159 13.907,3.60818 20.1187,6.7708 0.9933,0.50685 3.0241,1.7049 3.7723,2.22276 1.8232,1.26236 1.3894,3.20073 5.4509,4.95175 l 0.8362,0.60635 M 1136.4014,146.7103 c -0.9054,2.75754 -2.6029,7.32621 -4.4009,12.12644 -2.8356,7.57468 -6.8971,14.70926 -10.7951,21.82748 -3.2818,6.0031 -7.8966,11.85777 -12.4673,16.97686 -14.7936,16.56952 -33.5984,30.58576 -56.5841,32.74122 -13.3538,1.25208 -28.1976,-2.55318 -35.629,-14.55165 -7.0353,-11.36848 -7.1107,-23.69855 -4.1872,-36.37913 2.9046,-12.62292 8.6007,-24.72262 17.8114,-34.56018 10.6315,-11.35574 25.7833,-16.1687 40.8662,-17.58321 3.7471,-0.35106 7.488,-0.96523 11.3168,-0.60635 8.9465,0.83854 18.1258,2.14818 26.4059,5.25496 4.162,1.56194 8.4247,2.98127 12.5742,4.64807 3.5774,1.43698 8.7076,4.35886 11.9455,6.26567 1.1317,0.66756 1.9553,1.07264 2.5149,1.4146 m -669.57757,67.3014 c 0.0314,0.38134 -0.10939,1.12348 0.20936,1.81895 1.1298,2.46342 5.48676,6.34871 8.5926,7.68018 3.46043,1.48309 7.47915,2.2677 11.3168,2.62721 1.28383,0.12006 3.88732,0.0737 5.02969,-0.2019 1.3687,-0.33041 2.14579,-0.9083 3.14356,-1.61705 -0.86385,-1.14167 -1.48879,-2.05424 -3.14356,-2.93034 -3.68048,-1.94992 -9.09682,-4.30183 -13.20293,-5.45687 -2.38534,-0.6712 -5.77786,-1.84324 -8.17325,-2.32463 -1.66671,-0.33469 -4.40915,0.95559 -5.97276,-1.51582 -0.67398,-1.06464 -0.27348,-1.68672 -0.52372,-2.93034 -0.35082,-1.74011 -0.63185,-6.37963 -0.41934,-8.48844 0.46901,-4.65407 2.37967,-9.84419 4.50597,-13.9453 6.34998,-12.24831 17.7001,-22.56298 29.44443,-30.1141 8.59951,-5.52836 18.41495,-10.08666 28.29201,-12.7327 4.46887,-1.19687 9.34453,-1.38177 13.83164,-2.22276 2.76068,-0.51777 4.79582,0.0916 7.54454,0.2019 8.24617,0.33169 17.32602,0.71913 25.14845,3.23356 2.9323,0.94277 6.03751,2.08325 8.80195,3.63791 0.77269,0.43474 2.53057,1.33266 3.14356,1.81896 1.23793,0.98224 0.84813,1.70855 1.99113,2.72844 0.65008,0.58079 2.0584,0.68265 3.03856,0.70757 0.0974,1.18896 0.38477,2.13909 0.83808,3.63791 0.25085,0.82945 0.40614,2.10208 0.41934,3.03157 0.0396,2.76363 0.27726,5.73699 0,8.48843 -0.15403,1.52674 -0.89969,4.01444 -0.73371,5.45687 0.29299,2.54418 0.7859,1.86934 2.61984,3.63791 2.57773,-3.37416 4.17528,-8.14165 8.17325,-10.71183 1.45987,-0.93795 3.32651,-1.34603 5.02969,-1.41451 3.10395,-0.12487 6.4072,0.67365 8.80196,2.62721 4.78324,3.90284 6.98247,11.18531 8.5926,16.77496 4.74803,16.4852 6.0526,33.45125 7.75389,50.32453 0.6042,5.994 0.65386,12.20456 1.25742,18.18956 0.0943,0.93795 0.62872,2.18211 0.62872,3.03157 0,3.31659 -1.12791,2.70961 -1.46678,4.85052 -0.17164,1.08355 0.72239,5.04278 0.94306,6.06322 0.30178,1.39759 1.16563,2.27979 1.78114,3.03156 1.49885,-0.83672 2.74118,-1.09983 3.14356,-3.63791 0.12071,-0.76087 -0.0591,-4.42189 0.10499,-5.45687 0.84939,-5.36165 -0.33699,-11.06226 0.73307,-16.37061 0.84751,-4.20179 -0.008,-8.48598 0.41936,-12.7327 1.2241,-12.14335 1.35613,-25.06095 -1.04806,-36.98539 -1.24108,-6.1548 -2.46392,-12.02876 -5.34405,-17.58331 -1.00594,-1.94019 -1.98735,-4.20051 -3.24792,-6.06312 -5.01209,-7.40379 -12.22844,-12.9407 -20.53811,-16.16871 -3.35607,-1.30365 -7.61998,-2.47869 -11.3168,-2.62721 -1.62396,-0.0655 -4.80776,0 -6.07776,0 h -0.83806 M 1470.8758,382.5684 c 0,-0.54751 0,-1.15813 0,-2.42531 0,-3.14743 0.9115,-9.32461 1.2574,-12.73269 0.7607,-7.53294 2.3765,-14.98157 3.6654,-22.43383 1.0122,-5.82976 1.6535,-11.82804 3.1435,-17.58322 2.3137,-8.91953 3.4077,-18.31507 5.3441,-27.28435 3.4139,-15.79764 7.0353,-31.69832 7.9658,-47.89922 0.075,-1.25872 -0.503,-2.40284 -0.6288,-3.63791 -0.5155,-5.09854 -0.6727,-10.0752 -1.2573,-15.15791 -0.5785,-4.99795 -1.2073,-10.3596 -2.7224,-15.158 -2.3451,-7.39161 -4.621,-15.38538 -8.0726,-22.43383 -1.5907,-3.25412 -3.2065,-6.56762 -4.9229,-9.70104 -6.8341,-12.48896 -16.686,-26.11176 -30.1781,-32.43809 -1.6913,-0.79425 -4.4953,-1.76803 -6.2871,-2.22341 -1.0437,-0.26493 -2.0622,-0.4038 -3.1436,-0.60625 -1.6786,-0.31468 -3.2127,-0.91676 -5.0296,-1.11139 -7.2554,-0.77733 -14.8125,-0.74277 -22.005,0.60626 -2.0873,0.39171 -4.1997,0.7937 -6.287,1.2127 -0.9935,0.19881 -2.2194,0.71358 -3.1436,1.0107 -1.8044,0.57907 -2.3137,1.05382 -3.7723,0.70694 -1.2134,-0.28794 -1.1946,-1.06045 -1.3644,-1.71764 -0.3017,-1.19142 -0.899,-1.72255 0.2138,-2.93034 1.0877,-1.18478 2.32,-0.98715 4.2942,-1.51583 3.703,-0.99133 7.5005,-1.91654 11.3168,-2.2234 5.7401,-0.46138 11.3544,-1.10529 16.9752,-0.10122 0.7732,0.13824 1.7101,0.0691 2.5148,0.10122 1.5214,0.0609 2.3892,0.47657 3.7723,0.60635 0.9242,0.0864 1.5025,-0.0791 2.5148,0.10123 2.6532,0.47356 4.992,1.20296 7.5446,1.81895 2.7474,0.66274 5.5955,1.32366 8.1732,2.32408 19.9741,7.75785 33.8687,25.63574 41.9162,44.26122 3.8602,8.93417 6.1174,18.39274 8.1732,27.8907 0.5847,2.7187 0.5533,5.6927 0.8363,8.48843 0.7984,7.89191 0.7984,15.75462 0,23.64644 -1.6348,16.22327 -4.6526,32.31012 -6.2872,48.50557 -0.9494,9.39855 -2.2256,19.49557 -1.2574,29.1033 0.8802,8.73945 7.4314,17.76693 11.4237,25.4654 1.0499,2.02449 2.2445,3.92039 3.1435,6.06312 0.7167,1.72501 1.6346,4.14304 0.9431,6.06322 -0.9179,2.54045 -3.7409,3.82281 -6.0796,4.95184 -7.2302,3.48748 -15.3658,5.46414 -23.2624,7.57895 -1.3643,0.36498 -4.5016,0.7385 -5.6584,0.90948 -1.0877,0.16007 -3.0681,0.12005 -3.6654,1.71773 -0.3018,0.79489 -0.2138,1.32111 0,2.42522 0.3961,2.08762 1.3392,5.50962 3.0367,7.27583 3.1498,3.27539 7.8086,5.41139 11.9455,7.07392 7.5948,3.05102 15.6361,6.13115 23.2624,9.09478 15.4662,6.0062 31.7498,12.16582 40.1306,27.48625 10.4115,19.01538 13.0709,41.38072 15.1959,62.45088 0.6853,6.80717 -0.6853,13.8077 0,20.61487 2.2068,21.89114 5.0423,43.74772 8.1733,65.48244 1.8798,13.03946 3.703,26.25964 5.0297,39.41069 0.3709,3.69858 0.5783,7.8397 0.6287,11.52009 0.019,1.50973 -0.4904,3.45602 -0.6287,4.85052 -0.1384,1.3945 0,2.41921 0,3.63791 h 2.5148 l 6.2872,0.60635 h 10.688 51.5544 l 208.7321,-1.21269 m -467.7612,-442.00646 -3.5648,-1.31383 -0.8362,-3.53669 0.6288,-9.70113 0.6287,-4.24417 v -3.03166 l 0.6286,-4.85052 1.4649,-12.12634 1.9931,-7.27583 3.4579,-2.42531 c 0.3017,0.69848 0.6035,1.1635 0.6287,3.03157 0.025,1.60432 0.082,6.58226 0,8.48852 -0.2075,4.80805 -1.6724,10.51294 -2.4079,15.15791 -0.1823,1.12721 -0.038,1.87598 -0.1069,3.03166 -0.044,0.79788 -0.371,1.53756 -0.5219,2.42521 -0.5407,3.11469 -1.0436,6.51005 -1.3642,9.70114 -0.075,0.76096 0.01,3.01583 0,3.63791 -0.019,1.09747 -0.1132,2.3701 -0.3144,3.63791 -0.2201,1.40724 -0.1949,1.52065 -0.5218,3.03157 -0.1698,0.78888 -0.4025,2.15 -0.6288,3.03165 -0.679,2.60593 -2.2508,4.73893 -4.1934,6.66948 -6.4884,6.4361 -14.976,10.15769 -20.5401,17.58322 -5.9287,7.92037 -6.5952,19.03419 -15.9252,24.65723 -1.2574,0.75786 -3.5711,1.76557 -5.0297,1.11138 -1.8547,-0.83254 -2.8921,-3.24566 -4.401,-4.44617 -0.9557,-0.76151 -1.8233,-1.24353 -3.1435,-1.31392 -1.5467,-0.0828 -2.5715,0.51658 -3.5649,1.81895 -1.2197,1.6056 -1.666,3.61791 -2.3011,5.45687 -2.2633,6.54707 -3.0555,13.80106 -1.6785,20.61488 0.6034,2.98127 1.6848,7.15031 5.0296,8.28653 3.3322,1.1302 6.3186,-1.08829 8.1733,-2.82966 1.2762,-1.19806 2.0558,-1.81832 3.1435,-2.42531 0.6224,0.844 1.0059,1.43152 1.2574,3.03165 0.1006,0.62873 0.4841,2.30462 0.6288,3.03157 0.4966,2.45741 0.9744,4.80386 1.2573,7.27583 0.9808,8.53454 3.8792,18.90377 7.1233,26.67799 2.7349,6.54643 9.1918,11.82386 10.9019,18.79592 0.9557,3.90594 -1.1379,9.02266 -2.0999,12.7327 -0.2703,1.05799 -0.3206,2.01113 -0.7293,3.03156 -0.591,1.46062 -1.7101,4.46736 -3.8792,4.14304 -1.7477,-0.26075 -2.9926,-2.23368 -3.8791,-3.53669 -2.3074,-3.41173 -4.5142,-6.69376 -6.4946,-10.30739 -5.4446,-9.94787 -11.1219,-21.42731 -12.2599,-32.74122 -0.264,-2.59747 -0.3395,-5.93771 0.2075,-8.48852 0.5533,-2.53681 1.7667,-5.30099 0.8425,-7.88209 -1.3077,-3.627 -6.9913,-6.30878 -9.6444,-9.1961 -2.7287,-2.97217 -4.9794,-6.69312 -6.6015,-10.20616 -0.2578,-0.5687 -0.7544,-1.96138 -0.943,-2.42522 -1.2575,-3.12015 -2.1629,-1.67953 -3.1437,-5.45687 -0.5658,-2.18156 -0.2073,-2.59328 -0.2073,-4.24426 0,-1.19806 0.4903,-2.65322 -0.3145,-4.24426 -1.5403,-3.05458 -2.1502,-1.28473 -2.2004,-4.85052 -0.019,-1.23326 0,-4.63352 0,-6.06322 0,-5.13792 -0.1761,-10.73421 0.8361,-15.76426 0.9746,-4.82324 1.7038,-9.81755 2.7287,-14.55166 0.5909,-2.75635 1.1819,-5.16583 1.8861,-7.88217 0.4275,-1.65461 0.4652,-3.17644 1.0436,-4.85052 2.7224,-7.86271 6.0671,-16.14933 9.9588,-23.64644 8.2864,-15.99108 21.942,-32.75877 39.5019,-39.81514 3.6026,-1.44725 6.7461,-2.02086 10.6882,-2.02086 1.9238,0 4.5581,-0.009 6.287,0.60635 2.4772,0.87492 1.9554,2.21003 4.8222,3.03156 h 0.8363 m -2.5148,-0.60634 c -1.0752,1.01261 -1.9679,1.83114 -3.7723,2.62721 -2.496,1.10228 -7.0227,3.44328 -9.4307,5.15374 -6.2871,4.4619 -12.373,9.9024 -16.3465,16.47183 -2.0936,3.46029 -3.8352,7.7142 -4.8222,11.52009 -0.3206,1.24717 -0.3899,2.39247 -0.8362,3.63791 -0.8802,2.44104 -2.0307,4.93483 -3.1435,7.27583 -7.1737,15.08761 -17.2959,29.31912 -25.0417,44.26122 -2.2445,4.32184 -4.9039,9.3658 -6.287,13.94539 -0.4967,1.63215 -1.7102,5.86613 -1.993,7.27583 -0.4842,2.39129 -1.5845,2.71388 -2.5149,3.63791 M 585.65027,150.95456 c -0.64883,0.46083 -1.52526,1.00834 -2.51485,1.41451 -1.7736,0.72886 -5.13908,2.3289 -6.91582,3.63792 -4.02124,2.96253 -7.55019,7.03699 -9.95439,11.31818 -2.94299,5.23923 -5.49493,10.74276 -7.44017,16.37061 -1.99553,5.77455 -2.6387,11.97355 -4.8197,17.58322 -1.37436,3.53487 -5.13468,6.63191 -7.96388,9.09478 -6.64988,5.78974 -15.26008,10.90774 -23.26232,14.55165 -6.37136,2.90187 -12.62578,5.72189 -19.49005,7.37714 -5.82375,1.4036 -12.36234,0.58325 -18.23262,1.91955 -10.64471,2.42412 -18.3414,11.2115 -21.16683,21.01932 -0.70541,2.45068 0.82047,5.08944 2.93421,6.46757 6.03813,3.93622 15.06266,0.81189 21.37617,3.94104 5.3824,2.66723 5.69927,9.34644 6.28712,14.45043 0.14271,1.23807 0.43758,2.69997 0.83807,3.63791 0.24645,0.57598 0.92609,2.0275 2.30548,1.51583 1.40077,-0.51968 1.67552,-1.39878 1.88613,-2.72843 0.30242,-1.91055 0.62872,-6.84356 0.62872,-9.09479 0,-6.36216 0.96318,-13.18871 2.30548,-19.40226 0.77583,-3.59244 1.62082,-7.39706 4.08662,-10.30739 4.12435,-4.86935 11.16592,-6.55125 16.87022,-8.69034 11.12001,-4.17032 22.37143,-7.3947 32.69297,-13.33905 9.53316,-5.49079 16.88279,-13.67737 22.42425,-22.83818 2.35012,-3.88529 3.57611,-8.55883 6.49647,-12.12644 l 0.83808,0.80826 c 0.54321,0.54869 1.29766,1.35812 1.57177,2.2234 0.32757,1.03317 0.15718,3.08249 0.94307,4.24417 2.77702,4.10302 9.88272,6.34698 10.47873,11.52009 0.62997,5.46778 -0.63248,11.55156 -1.25742,16.97696 -0.24771,2.14755 -1.45987,5.18948 -0.31436,7.27582 1.63214,2.97272 5.21579,0.85428 7.85889,0.60626 4.30227,-0.40317 8.67056,0.22373 11.94552,3.03166 4.43367,3.80034 6.38833,9.38763 8.17325,14.55165 0.71107,2.05724 1.4278,3.96769 1.99112,6.06313 0.20496,0.76278 0.48976,1.74865 0.73308,2.4253 0.7337,2.03723 1.42089,2.68415 2.30548,3.63792 M 1394.173,153.37987 v 1.2126 m -804.75046,18.79592 c -2.40734,3.26685 -1.20462,4.13813 -0.62872,5.45687 l 3.14355,-3.03166 m -3.14355,3.03166 -1.46678,4.24417 -2.30549,3.63791 m 3.14356,-2.42521 -0.62871,4.24417 m 802.8644,15.158 c 0.767,0 1.3453,-0.1346 3.1435,0.20191 1.2637,0.2371 4.1746,0.73304 5.6584,1.0107 4.3695,0.81917 8.8711,1.58249 13.2029,2.62721 3.7283,0.89975 7.3182,2.31489 10.6881,3.94104 9.1604,4.4177 18.195,10.43963 23.1554,19.50349 3.3197,6.06322 4.753,12.29678 6.8153,18.79592 2.9675,9.38154 6.0985,18.55517 11.0024,27.28435 1.5089,2.69023 3.439,5.59201 5.5516,7.88208 2.672,2.8976 5.4508,5.52481 5.0296,9.70113 -0.4464,4.42852 -2.4833,8.78074 -4.1935,12.7327 -2.7977,6.4864 -6.0733,13.13768 -9.3237,19.40217 -1.9931,3.84046 -5.4888,8.50608 -5.9728,12.7327 -0.3521,3.0704 0.9178,6.1287 1.2574,9.09478 0.9242,8.02951 2.4771,16.54287 5.0297,24.25279 1.0122,3.05521 1.9489,7.44562 4.401,9.70113 2.0998,1.93228 3.4327,1.2126 5.0297,1.2126 M 58.161518,703.91737 c 7.00749,0 14.399374,0.55778 21.376183,1.2126 5.624388,0.5275 11.362824,0.0791 16.975207,0.60635 7.907492,0.73968 15.995672,-0.13342 23.891032,0.60635 4.53929,0.42436 10.00028,-0.41836 14.46035,0 1.11848,0.10304 2.00244,0.49712 3.14355,0.60626 0.90346,0.0846 1.52086,0 2.51485,0 6.24122,0 12.67482,0.0246 18.86134,0.60635 9.93616,0.93376 20.19862,-0.40017 30.17815,0 24.25381,0.97614 48.61196,1.21261 72.93051,1.21261 17.2619,0 35.01796,-0.21219 52.18303,-1.81896 4.48145,-0.41836 13.22118,0.18799 16.13714,-3.63791 1.6818,-2.20694 1.74404,-5.2386 2.20048,-7.88209 0.95187,-5.51144 1.2197,-10.7986 1.78115,-16.37061 1.61892,-16.06138 2.51484,-32.2441 2.51484,-48.50557 0,-10.13759 0.24017,-20.83305 1.25742,-30.92226 1.23668,-12.26577 0,-25.25985 0,-37.59174 0,-18.64003 -1.23479,-37.9016 0.62871,-56.38765 2.45449,-24.34792 18.35083,-48.55769 37.09397,-64.87609 20.09172,-17.49291 45.3766,-27.75673 69.15823,-38.90566 5.50122,-2.57874 11.3495,-4.66081 16.9752,-6.77016 2.51799,-0.94468 6.61845,-2.80001 9.43067,-2.12218 2.34006,0.56388 3.87726,2.58656 5.6584,4.04172 3.88858,3.17718 7.53322,6.50823 11.31681,9.80236 10.31086,8.97655 20.33881,18.50788 28.08264,29.70966 2.12442,3.0734 4.15075,6.40882 5.76277,9.70113 0.7972,1.62669 0.98141,3.14134 1.57177,4.85052 1.51331,4.37886 3.00399,9.64292 4.92533,13.9453 1.00405,2.25005 2.69214,6.35062 5.34405,3.03166 0.85567,-1.07137 0.70792,-2.32827 1.04742,-3.63792 0.72617,-2.80064 1.47119,-5.67332 2.2005,-8.48852 2.35138,-9.06986 4.67761,-18.92497 9.01195,-27.28435 0.98393,-1.89772 3.40824,-5.41012 4.92469,-6.66948 1.0883,-0.90338 3.07943,-1.05681 3.66727,-2.52653 0.24583,-0.61417 0.16095,-1.0047 0.105,-1.71773 -0.21942,-2.79992 -5.25854,-4.31757 -8.17325,-5.25496 -1.72141,-0.55297 -3.28439,-0.83791 -5.02969,-1.51574 -4.62606,-1.79658 -9.23703,-3.10496 -13.83165,-4.9512 -7.13084,-2.86549 -14.30632,-6.86356 -20.11875,-11.92453 -4.02753,-3.50632 -7.52317,-8.36657 -10.47874,-12.7327 -1.14991,-1.69891 -2.05337,-3.87984 -3.14355,-5.45687 -0.67335,-0.97432 -1.44353,-1.74256 -2.0955,-2.42522 l -2.30548,2.42522 -7.12519,8.48852 -3.14355,2.93034 -3.14356,1.31384 -0.20936,-3.63792 1.9905,-4.85052 5.02969,-10.30739 1.88613,-3.63791 1.99114,-1.4146 2.61984,2.02086 2.40984,3.03165 c 0.75005,-0.80825 1.62899,-1.40733 1.88614,-3.03165 0.0723,-0.45474 0,-1.88808 0,-2.42522 v -7.27582 c 0,-6.03594 -0.62872,-12.16464 -0.62872,-18.18957 0,-0.8198 0.0811,-1.62015 0,-2.42531 -0.17792,-1.76739 -0.6287,-3.47784 -0.6287,-5.45687 0,-3.65128 -0.47405,-8.55027 -0.62872,-12.12634 -0.17541,-4.06301 -1.20649,-3.30023 -2.20048,-5.45687 -0.613,-1.3303 -0.18045,-2.73753 -0.41936,-4.24427 -0.19175,-1.2126 -0.4709,-1.50909 -0.52371,-2.4253 -0.054,-0.93313 0.0257,-1.52911 0,-2.42522 -0.0226,-0.7876 -0.43758,-1.57221 -0.52372,-2.4253 -0.33322,-3.30505 1.23164,-2.09544 1.15242,-4.85052 -0.022,-0.75851 -0.54697,-3.31905 -0.7337,-4.24426 -0.52874,-2.6223 -0.7488,-5.37866 -1.36179,-7.88218 -0.30555,-1.24835 -0.8299,-2.40102 -1.25742,-3.63791 -1.36367,-3.94532 -2.95494,-8.24406 -7.33517,-10.00426 -1.65855,-0.66629 -3.96906,-0.64392 -5.6584,-0.10123 -2.40482,0.77306 -3.91562,2.36164 -5.65841,4.04236 l -3.77226,-3.63791 -6.70646,-7.88218 -1.46679,-13.9453 v -13.9454 l 2.9342,-19.40217 1.99049,-4.85052 1.99114,-1.2127 m 194.27177,43.65496 -1.88613,0.10131 -6.28712,1.01007 -3.14355,1.92027 c 1.0556,0.9113 1.59063,1.67281 3.77226,1.81896 1.9402,0.12969 7.60804,0.88947 9.32567,-0.30322 0.80349,-0.55778 0.71296,-1.40605 0.73371,-2.12209 0.0321,-1.12166 0.18358,-1.41633 -0.31436,-2.12208 -1.10904,-1.57103 -1.43032,-2.78 -1.78114,-3.94114 -0.22445,-0.74031 -0.71044,-1.61759 -0.94306,-2.42521 -0.51177,-1.7753 -0.94935,-3.58462 -0.73371,-5.45687 0.8211,-7.12795 9.17101,-12.08824 15.08907,-15.25923 2.04583,-1.09565 5.0737,-2.4896 7.54453,-2.32408 2.90465,0.19463 5.72757,2.12945 8.17325,3.53669 5.33147,3.07285 10.41775,6.52887 15.08907,10.50993 1.87357,1.59768 4.94796,5.21495 6.07964,7.1746 0.86134,1.49819 0.635,1.94992 0.94307,2.93034 0.16975,0.56324 1.13168,1.26963 1.77925,1.71828 0.45896,0.3195 1.06881,0.70694 1.88613,1.11138 1.68495,0.83609 2.76634,1.0962 3.56479,2.12209 0.66015,0.85009 1.23857,2.97527 1.57178,4.24426 0.77332,2.98245 0.89906,7.39342 1.57179,10.30739 0.27663,1.20724 0.19489,1.87416 0.20747,2.42531 M 660.4669,253.42248 h 0.83808 c 1.97037,-0.14979 7.94124,-1.11084 10.47872,-1.2127 8.52533,-0.34251 17.11981,-1.81896 25.77716,-1.81896 4.8285,0 7.67028,-1.22534 10.6881,0 m 4.40097,1.81896 c 0,0.98042 0,1.65525 0,3.63791 0,1.17323 0.30807,4.09084 0.52184,5.45687 0.77959,4.90455 0.67272,9.12207 1.36429,12.7327 m -71.67308,-16.97687 h 2.51485 m -11.94551,11.52 c -0.39421,2.06515 -1.21656,3.22865 -1.25742,6.06322 -0.009,0.66274 0,2.28461 0,3.03156 v 8.48853 c 0,9.04685 -0.68467,18.6825 -3.03857,27.28435 -2.46769,9.01711 -7.84443,17.56202 -13.30792,25.46539 -1.9773,2.86058 -5.45408,7.26673 -7.7539,9.59982 -1.36933,1.38904 -2.02382,1.56366 -3.35354,3.13288 -1.34042,1.58303 -2.14328,2.58473 -3.35293,3.63791 -1.22095,1.06282 -3.57484,2.76845 -5.02968,3.83982 -9.72554,7.16487 -21.92317,13.71729 -34.57912,12.53079 -4.63926,-0.43473 -8.92142,-1.62797 -13.20294,-3.23356 -12.71945,-4.77049 -26.1525,-14.46853 -35.10283,-24.65714 -1.14489,-1.30301 -4.108,-4.24908 -4.92532,-5.45687 -1.42403,-2.1039 -0.49103,-2.72543 -3.14356,-5.86131 l -0.83807,-0.80817 m 215.64795,-57.60035 v 2.42531 6.06322 l 0.62871,11.51999 v 6.66957 l -1.88613,4.24417 -2.51485,-3.63791 -0.10688,-4.85052 -1.77926,-16.37061 v -2.42531 m -245.82608,-3.03156 c 0.68969,0.6651 1.51582,1.58677 2.51484,2.42531 2.49535,2.09416 6.97996,5.05306 9.22131,7.88208 2.1898,2.76545 3.20705,5.98564 4.50535,9.09478 0.33573,0.80344 0.94684,2.2355 1.15305,3.03166 0.73245,2.82666 1.43032,3.5275 2.09549,4.24417 m 829.27018,-26.07165 c -0.9367,1.0107 -1.7604,1.45935 -1.3643,4.24417 0.094,0.64573 0.088,2.84849 0.2138,3.63791 0.5783,3.66884 1.3139,7.29711 1.8861,10.91374 0.8928,5.66187 2.4268,11.35884 3.5585,16.97696 1.2448,6.17354 2.6343,12.43503 1.993,18.79592 -0.4841,4.82387 -3.175,9.47549 -6.9157,12.73269 -1.905,1.65944 -4.7342,2.61384 -5.9729,4.85052 -1.8924,3.40573 0.7294,9.03722 2.2006,12.12635 1.9364,4.07146 4.9856,8.50853 8.8019,11.31818 5.2057,3.83682 13.0709,4.84207 19.4901,3.63792 2.4959,-0.46747 5.0799,-0.92103 7.5445,-1.51583 2.0119,-0.48502 4.2564,-1.49209 6.2871,-1.81896 1.2197,-0.19581 2.0874,-0.3777 3.0367,0.20191 1.1128,0.67483 1.3266,2.58901 1.3643,3.94113 2.8606,0 2.7977,-0.19281 5.6584,0.60626 0.4149,-0.89857 0.7733,-1.7613 1.0499,-3.03156 0.2829,-1.30965 0.7482,-4.57468 0.8362,-6.06322 0.1886,-3.27895 1.4209,-6.47303 1.8862,-9.70104 0.3395,-2.35983 1.0751,-4.49828 1.7791,-6.66957 0.3145,-0.95432 0.4276,-1.60369 1.3644,-2.12209 1.0562,-0.58388 2.1376,-0.20736 3.1436,0.30313 1.2888,0.65546 2.584,1.68381 3.7723,2.52653 5.8657,4.16541 12.6182,7.97858 19.49,10.00426 13.7059,4.03936 27.5564,1.38914 38.9801,-6.87202 2.2256,-1.6085 4.2752,-3.19345 6.2871,-5.05242 0.7105,-0.65546 2.2696,-1.96265 2.936,-2.52653 1.0689,-0.91012 1.27,-1.27991 2.7224,-1.41451 0.7167,-0.0664 1.4648,0.75177 1.5718,0.90948 1.4523,2.07906 1.7414,6.53551 2.2004,9.70104 0.7922,5.51453 2.5086,11.46488 3.1436,16.97696 0.2578,2.2234 0.5596,4.43579 0.7355,6.66947 0.05,0.71913 0.1195,1.2218 -0.1068,1.81896 -0.4904,1.29692 -1.3706,1.7632 -2.5148,2.32408 -1.0814,0.52986 -6.1866,1.80859 -6.9159,2.12209 -2.6656,1.14412 -2.0622,2.13181 -5.6584,2.2234 M 466.82385,275.85622 c -0.25338,0.48811 -0.27915,0.71794 -1.04807,1.81895 -2.3979,3.43601 -5.40628,9.9728 -5.86776,14.55166 -0.59099,5.86431 2.86441,12.73333 5.86776,17.5833 2.97192,4.79841 6.81334,9.26031 11.73615,12.22758 2.25707,1.36003 5.70619,2.86913 8.17325,1.01015 1.84401,-1.38904 2.34258,-5.56964 2.51484,-6.56825 0.26846,-1.55221 0.92861,-1.99967 1.88613,-3.03156 m 228.8509,-8.48853 v 3.63792 l -0.52183,4.24426 -2.62173,1.92018 -1.15054,1.11138 1.15054,2.42531 0.83618,-0.80826 2.30738,-2.82966 m -5.6584,0 1.25741,1.21261 m -44.63849,0 h 2.51485 m 46.52463,0.60635 v 0.80825 c 0,2.13964 -0.0503,2.07543 -1.15055,4.04227 -0.79846,1.41824 -0.78588,2.12454 -0.52811,3.03166 0.39609,1.36176 1.93642,4.74984 2.51485,6.66947 3.68424,12.17855 -0.0629,25.11552 -3.14357,36.98548 -0.81103,3.13589 -0.84247,7.08357 -2.92978,9.70105 -1.49634,1.87661 -3.89802,2.73389 -6.07965,3.43601 -6.23053,2.0033 -13.7059,1.06108 -20.11875,0.2019 -2.35767,-0.31586 -8.23613,-2.47014 -9.74503,0 -0.60357,0.98224 -0.31435,2.55145 -0.31435,3.63791 0,3.11588 0.0377,6.03894 0.52182,9.09479 1.54663,9.76297 3.7094,19.42773 5.6584,29.1033 0.2012,1.00106 0.63501,2.7479 0.7356,3.63791 0.14461,1.28 -0.10688,1.97666 0.73559,3.03166 1.93014,2.41921 3.01781,1.23807 4.92281,1.21261 1.81068,-0.0246 6.66434,0 8.80196,0 11.49284,0 22.62731,-1.21207 33.95041,-2.42531 2.94237,-0.31522 5.84701,-0.81671 8.80195,-1.21261 1.38317,-0.18553 3.219,-0.44928 4.40098,-0.80825 1.15054,-0.34979 1.84841,-1.11075 2.51484,-1.61705 0.89277,1.09083 1.42089,1.66498 1.99302,3.03165 0.33951,0.8209 0.92421,3.05458 0.20748,4.24417 -0.88649,1.477 -3.76599,2.14155 -5.34405,2.62721 -4.19351,1.2921 -8.82082,2.24278 -13.20294,2.82966 -10.92071,1.46308 -22.75934,2.86795 -33.9504,1.81896 -2.64688,-0.24856 -6.6329,-0.45347 -8.80196,-2.02086 -3.01781,-2.18211 -2.47712,-4.36668 -2.51485,-5.86122 m 28.29201,-112.77531 1.88613,2.42521 m 1.88614,0 2.0936,1.81896 6.60147,7.88217 3.25044,14.55166 -0.62871,4.85052 -4.60846,22.43383 -2.09989,12.12634 6.07963,10.30748 11.42369,16.37061 4.2941,6.66948 1.88613,3.03156 1.88614,3.63792 c 0.57841,-0.56024 1.7541,-1.66307 2.40796,-2.42522 1.15683,-1.33939 2.15648,-3.27112 4.50786,-2.12217 3.52707,1.72682 6.30597,9.33615 8.28012,13.03591 4.79707,9.00438 9.48097,18.0737 13.72478,27.28435 1.73524,3.76524 3.87285,7.7584 5.55151,11.52 4.16835,9.32888 9.50611,19.0603 13.30982,28.49705 4.65246,11.53518 10.1474,22.97642 14.98218,34.56017 3.28188,7.85062 6.57004,15.7267 9.53756,23.64644 2.98637,7.97367 5.61439,16.23537 8.38071,24.25269 5.49494,15.89404 10.03424,32.20163 11.73805,49.11183 0.42124,4.1836 1.05623,8.46424 0.62871,12.7327 -1.43975,14.30309 -10.88928,24.14364 -23.89103,30.41904 -18.9242,9.12507 -41.63325,8.7189 -62.24241,5.96009 -9.29864,-1.2429 -18.12575,-3.45602 -26.40588,-7.77904 -3.20642,-1.67954 -6.63919,-3.6622 -8.59448,-6.77262 -1.20083,-1.9159 -1.78553,-3.95923 -2.51484,-6.06312 -2.25078,-6.52406 -3.28188,-13.33905 -4.81592,-20.00853 -2.2005,-9.54952 -4.33183,-19.39617 -5.45093,-29.1033 -0.83619,-7.25764 -2.9298,-14.508 -3.77227,-21.82748 -2.1942,-19.03784 -7.50681,-37.90587 -9.43067,-56.994 -0.79846,-7.89428 -2.97381,-15.73216 -3.77226,-23.64644 -1.06882,-10.59842 -2.81663,-21.69224 -4.92281,-32.13487 -1.45233,-7.20125 -2.20678,-14.59167 -3.35732,-21.82748 -0.50926,-3.22264 -1.59064,-6.41973 -1.77926,-9.70113 -0.17604,-3.08859 -1.06252,-6.04558 -1.67866,-9.09478 -0.15718,-0.79307 -0.22004,-3.0031 -0.31435,-3.63792 -0.21376,-1.49763 -0.21376,-1.69708 -0.41495,-3.03156 -0.0189,-0.11523 -0.67273,-2.17247 -0.73559,-2.42531 m -170.38075,-93.37313 3.77227,1.4146 3.77227,2.72844 8.80195,6.06312 23.89103,15.36055 13.83165,5.9619 11.3168,-1.41451 13.20293,-7.88218 10.6881,-7.78149 3.14355,-1.11139 2.30549,1.21261 2.0955,2.42531 m 0,1.81895 2.09549,3.03157 1.25742,3.63791 1.04806,6.06322 -1.15243,7.88217 -0.94307,5.45687 -6.4971,10.30739 -1.88613,3.63792 -2.09549,5.45687 c -1.40581,-1.35576 -1.16375,-1.1223 -2.51485,-2.42531 -1.26119,1.54011 -2.61167,3.77797 -3.77227,5.45687 -0.7884,1.14049 -1.22347,1.76985 -2.09549,3.03166 -0.40992,0.59234 -0.77143,1.09501 -1.25742,1.81895 -2.81286,4.18542 -7.67154,10.68874 -7.96389,15.76426 -0.11945,2.07061 1.05435,4.04836 1.25743,6.06322 0.77016,7.6408 1.99804,15.27496 1.88613,23.04009 -0.0566,3.91012 -1.76103,7.95857 -3.24855,11.52009 -0.34894,0.83608 -0.85631,2.2797 -1.25742,3.03156 -1.60699,3.01583 -2.26336,2.48652 -4.9247,4.85052 0.81293,1.06409 1.65162,1.92027 1.88614,4.24426 0.0654,0.65055 0.0572,2.27734 0.20936,3.03157 0.60733,3.01037 1.5001,6.02748 1.67677,9.09478 0.64945,11.27389 3.26678,22.70549 4.40097,33.95392 0.16661,1.65216 0.53441,3.87492 0.83808,5.45687 0.13014,0.67783 0.3483,1.1162 0.41935,1.81895 0.15151,1.50428 -0.18988,3.59545 0.10499,5.45687 1.58499,10.00727 1.38506,20.15041 2.40985,30.31592 0.83493,8.27989 1.05058,16.57187 1.88613,24.85904 0.52498,5.20585 -0.52496,10.5585 0,15.76435 1.31464,13.04192 1.25743,26.22936 1.25743,39.4107 0,10.21044 0.0521,20.97866 -2.09549,30.92226 -0.52373,2.42531 -1.04555,4.94147 -1.88614,7.27583 -0.39986,1.10956 -1.73335,3.29231 -2.20049,4.24426 -0.5476,1.11556 -0.36403,1.90381 -1.46741,2.92852 -0.81355,0.75787 -1.75222,0.73358 -3.03857,1.11556 -2.49472,0.73368 -3.72007,1.02471 -5.6584,1.30965 -0.49228,0.0728 -2.3256,0.0428 -2.8292,0.40627 -1.73901,1.24898 -1.17129,1.69163 -2.8292,2.32217 -0.81418,0.30922 -2.63932,0.861 -3.77226,1.01261 -3.0065,0.40017 -5.83193,1.061 -8.80196,1.61887 -8.05379,1.50974 -16.34964,1.86134 -24.51974,2.6253 -15.83786,1.48554 -32.4635,2.10399 -48.41076,0.60635 -7.93434,-0.74577 -15.88439,-1.17623 -23.26232,-4.04418 -1.9358,-0.75177 -4.14447,-1.5643 -5.55341,-3.23164 -3.11651,-3.68639 -0.91414,-10.71366 -1.36241,-15.15801 -0.8758,-8.68852 -1.0116,-17.39522 -1.88613,-26.07165 -0.34328,-3.40145 0.34327,-6.90603 0,-10.30748 -1.17884,-11.6898 -1.33288,-23.44026 -2.51485,-35.16643 -0.26217,-2.60111 0.26217,-5.28107 0,-7.88218 -0.85442,-8.47752 -1.03046,-16.9775 -1.88613,-25.46539 -0.30304,-3.0031 0.30303,-6.09169 0,-9.09478 -0.87328,-8.66187 -1.25742,-17.30919 -1.25742,-26.07174 0,-9.3961 -0.62872,-18.99901 -0.62872,-28.49696 v -7.27583 c 0,-0.66692 -0.0321,-2.47496 0,-3.03156 0.17353,-3.01165 1.45924,-1.54611 1.88614,-5.45687 M 492.601,369.8357 v 3.63791 m 939.2947,10.91374 0.8361,-3.03165 2.8292,-6.06313 -3.0366,-3.63791 c 1.0625,-0.91621 1.5906,-1.78986 3.7722,-1.81896 1.9491,-0.0264 5.2749,0.90157 6.0797,3.03157 1.1317,3.01701 -0.9808,8.11736 -3.043,10.30739 -0.899,0.95804 -3.219,1.97784 -4.2941,2.2234 -1.6095,0.36624 -2.081,-0.23892 -3.7722,0.10068 -0.9054,0.18244 -1.7039,0.67965 -2.5149,1.41514 -1.7038,1.54248 -1.6094,1.62979 -1.993,3.5366 -0.1886,0.95377 -0.4715,2.50471 0.1069,3.63792 1.27,2.48533 4.5644,2.95762 6.9158,3.83981 6.1551,2.3089 13.3035,3.4803 18.8614,7.27583 3.8414,2.62657 5.1114,6.71259 6.4945,10.71183 0.3081,0.88465 0.7922,2.20885 0.9431,3.03166 0.2766,1.4618 0.3835,2.22577 0.7356,3.03156 l -1.2574,1.21261 c -0.8803,-0.37952 -1.7353,-0.60144 -3.1436,-1.11138 -2.9361,-1.061 -7.6703,-3.21282 -10.6881,-4.34549 -9.1855,-3.44447 -18.7168,-8.48843 -28.9207,-8.48843 -3.2945,0 -6.3375,0.49903 -9.4306,1.61705 -1.4084,0.50994 -3.1688,1.36786 -4.401,2.22276 -1.3015,0.90284 -3.0242,2.52472 -2.2005,4.04236 0.4526,0.83672 0.9618,1.058 2.2005,1.21261 4.3947,0.54933 11.0589,0.78943 15.089,2.42531 m -5.6584,32.74121 c -1.5529,-0.51294 -2.1188,0 -3.7722,0 -4.357,0 -10.9837,-1.18905 -13.6242,-4.85061 -1.4083,-1.95838 -1.8296,-4.40369 -2.0936,-6.66947 -0.4716,-4.08174 -1.4146,-8.0307 -1.8862,-12.12635 -1.4712,-12.75271 -4.9165,-25.3448 -5.6584,-38.19809 -0.1697,-2.96072 -0.3269,-6.11961 -0.6286,-9.09478 -0.2642,-2.63931 -1.4461,-5.66241 1.2574,-7.68027 2.4897,-1.85716 7.6891,-2.22522 10.688,-2.62721 1.4146,-0.18972 3.722,-0.58871 5.0298,-0.60626 2.3199,-0.0309 2.7663,0.211 3.7722,0.60626 0.3584,0.14006 0.7355,0.46747 1.8862,0.60635 0.9618,0.11577 1.5403,0.009 2.5148,-0.20191 0.5658,-0.12187 1.3328,-0.3747 1.8861,-0.40444 1.3014,-0.07 1.773,0.0555 3.1436,0 1.2511,-0.05 3.0869,-0.55351 4.4009,-0.60626 4.3822,-0.17644 8.8146,0 13.203,0 m -824.24053,5.45687 c 0.77646,-0.21709 1.49633,-0.18499 3.03856,-1.81896 1.14614,-1.21388 1.81824,-3.14679 3.87726,-2.12218 0.90912,0.45238 0.90723,0.9083 1.46678,2.12218 1.44478,3.13461 2.74685,6.53669 4.29662,9.70104 0.49354,1.00898 1.89682,3.32751 2.20049,4.24426 0.72553,2.19121 -0.77709,3.18318 2.7242,4.24427 m 780.85942,-20.61487 c -1.1066,1.04108 -1.6095,2.01358 -4.401,2.4253 -0.8299,0.12187 -3.4516,0.92039 -4.4009,1.11138 -2.4583,0.49412 -4.8475,1.05191 -6.9159,2.42522 -1.9302,1.28054 -2.5274,3.6119 -1.0499,5.55818 1.3706,1.7935 3.9357,2.02323 6.0797,2.42522 6.375,1.19569 13.008,1.21452 19.49,0.60635 2.0244,-0.18981 7.0793,-0.62936 8.802,-0.60635 1.6283,0.0218 2.2445,0.5948 3.1435,1.2127 m -68.5296,-12.12644 c -0.4212,1.29328 -0.9807,3.07222 -1.1505,4.24426 -0.1697,1.16532 -0.1068,1.48909 -0.1068,3.03157 0,2.35318 -0.1573,5.5048 0.6287,7.88217 3.0932,9.3458 9.3363,17.65725 14.6678,26.07174 3.2505,5.127 9.5878,11.4406 9.8519,17.58322 0.1446,3.41718 -1.0437,6.64647 -2.408,9.70113 -2.2759,5.09062 -5.0737,10.31467 -8.0726,15.15791 -0.8613,1.39878 -1.8296,3.05831 -2.8292,4.24427 -0.5911,0.70693 -0.9368,1.25508 -1.7792,1.41451 -1.6222,0.30867 -2.5653,-1.59523 -3.2505,-2.62712 -1.6536,-2.5017 -4.1558,-6.85565 -5.5516,-9.70113 -3.5899,-7.33404 -7.2616,-14.61532 -10.795,-21.82748 -1.3642,-2.78419 -3.0115,-5.70671 -4.294,-8.48844 -1.1694,-2.53262 -2.4709,-4.74693 -3.5648,-7.27582 -0.9368,-2.17975 -1.6912,-4.8809 -3.458,-6.66957 -1.6157,-1.6437 -4.5581,-1.42361 -6.8088,-1.21261 -0.9619,0.09 -2.2697,0.53596 -3.1436,0.60635 -1.6346,0.13096 -2.0245,-0.2462 -3.1436,-0.10132 -1.0248,0.13342 -1.6283,1.11139 -1.8861,1.31393 m 44.0098,-32.74122 v 1.81896 l 0.3144,2.72843 3.5647,3.33478 5.4447,11.52 1.7855,4.24426 0.6287,3.63792 0.1006,1.81895 2.6218,4.24427 m -56.5841,-2.42531 0.8362,-3.03156 6.0796,-6.26513 15.7179,-12.53079 6.9157,-4.95183 4.4011,-1.71765 m 7.5445,3.03157 c 0,2.2676 -0.6917,3.61427 0.6287,7.27582 0.9682,2.69388 2.3325,5.38594 3.8791,7.88218 0.7922,1.28173 3.307,5.10581 4.0866,6.06313 1.3706,1.69226 2.0182,1.54429 2.7224,1.81895 m 68.5295,-16.97686 c 0.4212,0.36433 0.8613,1.30419 2.5148,1.71764 1.5969,0.39899 4.5519,1.09683 6.2872,1.51583 3.5521,0.85672 6.9409,1.84324 10.0594,3.63791 7.5948,4.37395 12.6244,11.81658 16.2395,19.20027 3.854,7.87308 4.7657,17.56512 6.6015,26.07174 1.5027,6.95269 2.7475,14.15148 3.5649,21.22113 0.7921,6.8581 2.4518,13.75922 3.1435,20.61487 0.4652,4.61651 0.1634,9.31488 0.6287,13.9453 0.5469,5.45387 0.6287,10.8398 0.6287,16.37061 0,1.7553 -0.4967,5.1622 -0.6287,6.66957 -0.1258,1.4418 0.1823,1.73101 0.2074,3.03157 0.01,0.26738 -0.308,1.50491 -0.4149,1.81895 -0.3081,0.89311 -0.9682,1.50492 -1.1568,2.42531 -0.3332,1.65889 0.3458,1.80013 -0.1006,3.63791 -0.4527,1.83351 -1.4838,4.36122 -2.4143,6.06313 -3.6843,6.73196 -11.5872,13.10076 -18.7544,16.26938 -3.8352,1.69591 -8.5693,1.84688 -12.5743,0.50567 -3.0995,-1.03926 -3.6025,-1.85961 -3.9797,-4.04235 -0.3081,-1.77585 -0.1257,-2.0396 -0.6288,-3.63792 -0.2011,-0.63781 -0.8361,-1.6989 -0.943,-2.42521 -0.2452,-1.58013 -0.5784,-3.26085 -0.7355,-4.85061 -0.7545,-7.49229 1.6912,-15.67086 0.6286,-23.04009 -0.8928,-6.20201 -9.3991,-8.61885 -11.1093,-14.55165 -1.8421,-6.40637 -1.4649,-13.92111 -1.4649,-20.61487 0,-3.94532 0.3144,-9.09961 -1.2574,-12.7327 -2.1502,-4.97057 -8.5316,-8.62668 -13.2029,-11.31809 -3.0241,-1.7432 -6.7273,-3.13288 -9.4307,-5.05252 m -792.80495,-57.60026 -2.0955,3.63791 -0.41934,3.63791 -1.25743,9.09479 -5.02969,32.13487 -2.72421,12.73269 -1.88613,4.14304 -2.30548,0.70757 -2.9342,-2.4253 -3.77227,-5.45687 -11.00244,-20.61487 -4.29599,-10.91374 2.40986,-6.06313 7.64953,-15.158 m -1.88614,-3.03157 3.14356,-2.4253 m -41.49495,27.8907 1.36242,3.63791 3.24793,3.63791 2.30548,6.66948 7.33518,23.04009 2.09549,7.88217 1.25742,3.63791 m 93.67797,-45.47391 0.20936,2.42531 3.0392,13.33895 9.32567,44.26131 5.02969,23.64643 4.40098,26.678 3.77227,23.64644 8.17324,67.30139 3.14356,33.95392 0.62871,13.9453 -0.20748,4.24427 -1.67866,1.922 -3.77226,1.2126 -22.00489,2.92852 -17.60392,1.81896 -30.17814,1.81896 -24.51974,1.81895 -15.08907,0.60635 -7.96388,0.60635 h -0.83807 m 835.55731,-265.56766 6.2871,1.61705 15.7178,5.25433 5.6584,2.0215 3.1435,1.21261 3.7723,-0.40445 m -894.02744,-9.09478 -1.25743,3.63791 0.62872,6.66957 2.09549,18.18956 6.4971,11.52 3.35293,3.63792 3.77226,1.81895 m 106.88091,-40.6233 h 3.56479 0.83619 m 570.86988,4.24417 c -0.1383,1.29091 -0.3332,2.02332 -1.2574,2.72844 -0.7985,0.60998 -1.4524,0.3838 -2.5148,1.01079 -1.2575,0.74031 -3.7597,2.75026 -5.0298,3.7385 -6.8907,5.35501 -11.2225,12.22157 -12.9954,20.41297 -2.5715,11.90871 -2.76,24.28007 -3.9798,36.37913 -1.5466,15.31134 -2.2256,30.7561 -3.7722,46.08026 -0.7482,7.44136 -0.5156,15.0646 -1.2574,22.43374 -0.7483,7.40989 0.1194,15.01549 -0.6288,22.43383 -1.3705,13.58151 -1.8861,27.539 -1.8861,41.22965 0,4.49892 -1.3706,11.12601 2.5149,14.35157 4.3066,3.56515 10.9773,3.94113 16.3464,4.44435 9.7577,0.91557 19.7919,0.91557 29.5495,0 2.0496,-0.19399 4.2626,0.1758 6.2871,-0.20009 2.4205,-0.45474 3.0115,-0.63054 4.401,-0.50931 0.3018,0.03 1.3705,0.34561 1.8861,0.60635 2.3828,1.21261 1.9239,2.06752 4.401,2.93453 1.0059,0.3456 3.8288,0.64272 5.0297,0.80643 4.4449,0.59416 8.7265,1.4006 13.2029,1.81896 8.3618,0.78215 17.5347,-0.16371 25.7771,-0.60635 0.9997,-0.0546 1.6033,0.0846 2.5149,0 1.358,-0.12733 2.8669,-0.7033 4.401,-1.01252 3.1876,-0.63664 5.7778,-0.74578 8.802,-1.916 4.797,-1.86743 11.3231,-3.91676 12.9954,-9.19783 1.8798,-5.94189 0.1948,-13.89683 -0.4213,-20.00852 -1.1191,-11.07745 -2.4645,-22.44656 -4.8221,-33.34757 -0.918,-4.26663 -1.7164,-8.99892 -2.0936,-13.33895 -0.1007,-1.15386 -0.5659,-3.88775 -0.7356,-4.85062 -0.2202,-1.27872 -0.4465,-2.0978 -0.5218,-3.03156 m -96.1929,-130.35852 0.4212,2.42521 1.6724,10.30748 7.5445,34.56018 2.5149,8.48843 1.5718,4.85052 2.6217,3.63791 c 1.8861,-2.0305 1.905,-2.07233 1.2574,-5.45687 m -828.64147,-1.2126 c 1.3687,1.35576 2.11749,1.66862 2.51484,3.63791 0.14209,0.7033 0.52749,2.7569 0.62871,3.63791 0.34643,3.00556 0.25903,6.09896 0.73371,9.09479 1.90876,12.04995 1.18701,24.24669 2.40985,36.37913 1.37248,13.61671 1.7717,27.62149 3.14356,41.22965 0.56647,5.61876 0.0597,11.33092 0.62871,16.97696 1.20147,11.92026 2.57331,23.8829 3.77227,35.77278 1.14927,11.39886 2.57394,22.86429 5.44904,33.95392 1.05308,4.06227 2.01878,8.44596 4.19099,12.12635 3.90052,6.60281 10.78114,4.23207 17.39454,4.85052 1.94461,0.18189 3.66791,0.60635 5.6584,0.60635 14.48363,0 29.61105,0.13942 44.00979,-1.21261 4.75997,-0.44874 9.80035,0.18189 14.46036,-0.50331 3.66098,-0.53959 7.64639,0.38198 11.3168,-0.30313 1.16061,-0.21827 4.02124,-0.46083 5.0297,-0.40626 2.08732,0.10914 2.46768,0.75187 3.14355,1.2127 M 1272.203,502.01318 c 0.088,3.27112 1.2134,4.29029 1.2575,7.27583 0.031,2.32763 0.1696,2.48042 0.5218,4.24426 0.132,0.64446 0.7922,3.21101 1.0499,3.63792 0.723,1.19505 1.7981,1.64979 2.2005,3.63791 0.1194,0.5887 0.082,1.4739 0.2074,1.81896 0.2642,0.71603 1.3266,4.71837 1.8862,5.45686 1.8987,2.49198 2.4017,1.08529 4.0866,3.63792 1.402,2.11781 3.9546,6.29777 5.6584,8.48843 4.6965,6.03412 10.3486,12.20038 17.0821,16.16871 8.8082,5.19194 18.8362,7.80941 28.9207,9.70113 3.3133,0.62081 8.9088,0.52986 11.9456,0.90948 1.3265,0.16607 1.9364,0.40199 2.5148,0.50503 m -74.8166,-50.32443 -1.8862,4.24417 0.2075,4.24426 0.4213,6.66948 0.6286,10.91374 1.8862,35.16652 v 10.91374 l 1.8861,27.8907 1.2575,19.40217 0.6286,9.09478 v 2.42531 m 215.0193,-126.11435 3.7722,-1.11139 4.2941,-1.0107 2.4143,5.15365 2.9298,8.48852 10.9018,30.92227 2.7224,7.88208 1.0499,3.03166 2.7224,3.63791 1.2573,-3.63791 v -7.88218 -21.22113 -9.09478 l 1.8862,-4.24426 2.5149,3.63791 0.2074,2.4253 1.0499,6.66948 4.4011,26.678 5.5514,31.52861 5.1366,24.25279 3.1436,10.91374 3.2504,5.76 13.7248,0.90947 h 5.0297 l 4.401,0.60635 m -49.0395,-126.11435 v 3.03156 l 0.5218,3.03166 -0.4149,3.03156 0.5218,3.63792 m -72.9305,14.55165 c 2.5274,-0.19217 5.1492,-1.49036 8.8019,-3.83982 5.5139,-3.54578 10.9773,-7.1746 16.3466,-10.91374 2.1187,-1.47517 5.5263,-4.03081 7.5445,-5.35619 1.6974,-1.11502 2.4896,-1.07864 3.7723,-1.11138 m -212.5045,2.42521 -0.8362,3.63792 0.8362,6.66956 3.0367,18.79583 8.9089,73.97096 v 10.30739 l -0.3144,3.03157 -5.344,2.52834 -2.5149,1.71592 m 242.6826,-69.7267 c 0,1.49827 -0.1258,1.78867 0,3.03165 0.1005,0.99252 0.528,2.03905 0.6286,3.03157 0.088,0.90102 -0.1508,1.50855 0,3.03156 0.1258,1.23998 0.4087,1.59041 0.5218,2.42531 0.2138,1.56548 0.4465,3.55969 0.7357,5.45687 0.038,0.2371 0.2514,1.70436 0.3144,1.81895 1.4774,2.57083 2.0809,1.09683 2.936,3.63792 0.2452,0.73367 1.0248,3.35297 1.2574,4.24426 0.8425,3.25593 1.7667,6.42092 2.6155,9.70104 1.9616,7.55476 4.6651,15.23685 5.4509,23.04018 0.2075,2.02504 0.635,4.69291 0.5218,6.66947 -0.044,0.83063 -0.5029,2.89215 -0.5218,3.63792 -0.05,1.71591 0.2514,1.76439 -1.2574,3.1347 -1.5215,1.37631 -1.2197,2.26151 -2.0937,3.53477 -0.7104,1.03681 -3.0429,2.72244 -4.1934,3.53487 -4.0866,2.90424 -8.4436,5.03851 -13.2029,6.57253 -10.9962,3.53478 -22.9418,4.92937 -34.5792,3.838 -4.9605,-0.46693 -10.3108,-0.72758 -13.6242,-4.85061 -6.8278,-8.50663 -8.3179,-20.43898 -11.7318,-30.31592 -3.2378,-9.36153 -5.4823,-19.37188 -7.4439,-29.1033 -1.949,-9.68531 -4.5581,-19.25729 -5.5514,-29.10331 -0.6917,-6.88229 -2.4144,-13.70402 -2.5149,-20.61487 -0.038,-2.61075 -0.1697,-6.32269 1.1505,-8.48843 1.5026,-2.44713 3.4328,-0.3286 5.1366,0.60635 1.5466,0.84818 2.2948,0.94949 3.7723,1.2126 m 72.9305,50.32444 c 0,0.95195 0,1.7341 0,3.63791 0,0.77006 0,2.15856 0,3.03166 v 8.48843 c 0,10.21044 -0.9934,21.52435 0.7356,31.52861 0.7544,4.3776 5.1176,4.66253 8.4876,5.86305 l 0.8362,0.20008 m 37.7227,-4.85052 -1.2575,2.01904 -5.0297,2.02514 -13.8317,2.01904 -8.8019,-0.60635 h -4.1935 -0.8361" id="path5736" class="EWdadqJV_0">

</path></g></g>

<style data-made-with="vivus-instant">.EWdadqJV_0{stroke-dasharray:13783 13785;stroke-dashoffset:13784;animation:EWdadqJV_draw 7000ms ease 0ms forwards;}@keyframes EWdadqJV_draw{100%{stroke-dashoffset:0;}}@keyframes EWdadqJV_fade{0%{stroke-opacity:1;}96.42857142857143%{stroke-opacity:1;}100%{stroke-opacity:0;}}</style>

</svg>
